<?xml version="1.0" encoding="UTF-8" standalone="no"?> <svg xmlns="http://www.w3.org/2000/svg" xmlns:xlink="http://www.w3.org/1999/xlink" viewBox="0 0 64 64"><defs><style>.cls-1{fill:url(#linear-gradient);}.cls-2{fill:url(#linear-gradient-2);}.cls-3{fill:url(#linear-gradient-3);}</style><linearGradient id="linear-gradient" x1="23" y1="21.49" x2="62" y2="21.49" gradientUnits="userSpaceOnUse"><stop offset="0" stop-color="#17a6d7"/><stop offset="1" stop-color="#9d31fe"/></linearGradient><linearGradient id="linear-gradient-2" x1="2" y1="36" x2="54" y2="36" xlink:href="#linear-gradient"/><linearGradient id="linear-gradient-3" x1="13.52" y1="36" x2="42.51" y2="36" xlink:href="#linear-gradient"/></defs><g id="Layer_97" data-name="Layer 97"><path class="cls-1" d="M60,2H25a2,2,0,0,0,0,4H58V39a2,2,0,0,0,4,0V4A2,2,0,0,0,60,2Z"/><path class="cls-2" d="M52,10H4a2,2,0,0,0-2,2V60a2,2,0,0,0,2,2H52a2,2,0,0,0,2-2V12A2,2,0,0,0,52,10ZM50,58H6V14H50Z"/><path class="cls-3" d="M15.49,38H26V48.51a2,2,0,0,0,4,0V38H40.51a2,2,0,0,0,0-4H30V23.49a2,2,0,1,0-4,0V34H15.49A2,2,0,0,0,15.49,38Z"/></g></svg>