<?xml version="1.0" encoding="UTF-8" standalone="no"?> <svg xmlns="http://www.w3.org/2000/svg" xmlns:xlink="http://www.w3.org/1999/xlink" viewBox="0 0 64 64"><defs><style>.cls-1{fill:url(#linear-gradient);}.cls-2{fill:url(#linear-gradient-2);}</style><linearGradient id="linear-gradient" x1="23.73" y1="35.9" x2="62" y2="35.9" gradientUnits="userSpaceOnUse"><stop offset="0" stop-color="#17a6d7"/><stop offset="1" stop-color="#9d31fe"/></linearGradient><linearGradient id="linear-gradient-2" x1="1.98" y1="28.71" x2="52.63" y2="28.71" xlink:href="#linear-gradient"/></defs><g id="Layer_20" data-name="Layer 20"><path class="cls-1" d="M61.49,20.55a2,2,0,0,0-2.82-.15L29,47l-1.7-2.21a2,2,0,1,0-3.17,2.45l3,3.91a2,2,0,0,0,1.4.77,2,2,0,0,0,1.52-.5l31.25-28A2,2,0,0,0,61.49,20.55Z"/><path class="cls-2" d="M52.12,12.76a2,2,0,0,0-2.82-.16l-31,27.81L5.58,23.94a2,2,0,0,0-3.16,2.44l14,18.18a2,2,0,0,0,2.92.27L52,15.58A2,2,0,0,0,52.12,12.76Z"/></g></svg>