<?xml version="1.0" encoding="UTF-8" standalone="no"?> <svg id="Layer_2" data-name="Layer 2" xmlns="http://www.w3.org/2000/svg" xmlns:xlink="http://www.w3.org/1999/xlink" viewBox="0 0 64 64"><defs><style>.cls-1{fill:url(#linear-gradient);}.cls-2{fill:url(#linear-gradient-2);}.cls-3{fill:url(#linear-gradient-3);}</style><linearGradient id="linear-gradient" x1="24.84" y1="32" x2="39.16" y2="32" gradientUnits="userSpaceOnUse"><stop offset="0" stop-color="#17a6d7"/><stop offset="1" stop-color="#9d31fe"/></linearGradient><linearGradient id="linear-gradient-2" x1="24.93" y1="11.91" x2="39.25" y2="11.91" xlink:href="#linear-gradient"/><linearGradient id="linear-gradient-3" x1="24.93" y1="52.09" x2="39.25" y2="52.09" xlink:href="#linear-gradient"/></defs><path class="cls-1" d="M32,39.16A7.16,7.16,0,1,0,24.84,32,7.17,7.17,0,0,0,32,39.16Zm0-11.82A4.66,4.66,0,1,1,27.34,32,4.66,4.66,0,0,1,32,27.34Z"/><path class="cls-2" d="M32.09,19.07a7.16,7.16,0,1,0-7.16-7.16A7.17,7.17,0,0,0,32.09,19.07Zm0-11.82a4.66,4.66,0,1,1-4.66,4.66A4.66,4.66,0,0,1,32.09,7.25Z"/><path class="cls-3" d="M32.09,44.93a7.16,7.16,0,1,0,7.16,7.16A7.17,7.17,0,0,0,32.09,44.93Zm0,11.82a4.66,4.66,0,1,1,4.66-4.66A4.66,4.66,0,0,1,32.09,56.75Z"/></svg>