<?xml version="1.0" encoding="UTF-8" standalone="no"?> <svg width="64" height="64" viewBox="0 0 64 64" fill="none" xmlns="http://www.w3.org/2000/svg">
<path d="M31.9999 20.35C30.6302 20.354 29.2664 20.5287 27.9399 20.87V17.62C27.9399 17.079 28.0465 16.5432 28.2535 16.0433C28.4606 15.5435 28.7641 15.0893 29.1466 14.7067C29.5292 14.3241 29.9834 14.0207 30.4833 13.8136C30.9831 13.6066 31.5189 13.5 32.0599 13.5C32.601 13.5 33.1367 13.6066 33.6366 13.8136C34.1364 14.0207 34.5906 14.3241 34.9732 14.7067C35.3558 15.0893 35.6593 15.5435 35.8663 16.0433C36.0734 16.5432 36.1799 17.079 36.1799 17.62C36.1799 18.0178 36.338 18.3994 36.6193 18.6807C36.9006 18.962 37.2821 19.12 37.6799 19.12C38.0778 19.12 38.4593 18.962 38.7406 18.6807C39.0219 18.3994 39.1799 18.0178 39.1799 17.62C39.1799 16.685 38.9958 15.7591 38.6379 14.8953C38.2801 14.0315 37.7557 13.2466 37.0945 12.5854C36.4334 11.9242 35.6485 11.3998 34.7846 11.042C33.9208 10.6842 32.9949 10.5 32.0599 10.5C31.1249 10.5 30.1991 10.6842 29.3352 11.042C28.4714 11.3998 27.6865 11.9242 27.0253 12.5854C26.3642 13.2466 25.8397 14.0315 25.4819 14.8953C25.1241 15.7591 24.9399 16.685 24.9399 17.62V22C22.092 23.3376 19.6841 25.4588 17.9982 28.1153C16.3122 30.7718 15.4178 33.8536 15.4199 37C16.3299 59 47.6699 59 48.5799 37C48.5878 34.8172 48.1649 32.6542 47.3353 30.6352C46.5057 28.6161 45.2859 26.7806 43.7456 25.2338C42.2054 23.6871 40.375 22.4595 38.3595 21.6214C36.3439 20.7834 34.1828 20.3513 31.9999 20.35V20.35ZM31.9999 50.5C28.3991 50.4974 24.9465 49.0658 22.4003 46.5196C19.8542 43.9734 18.4226 40.5208 18.4199 36.92C19.1699 18.92 44.8299 18.92 45.5799 36.92C45.5773 40.5208 44.1457 43.9734 41.5995 46.5196C39.0533 49.0658 35.6008 50.4974 31.9999 50.5Z" fill="url(#paint0_linear_122:2253)"/>
<path d="M32 30C30.9423 30.0086 29.9213 30.3886 29.1155 31.0737C28.3096 31.7588 27.7702 32.7053 27.5915 33.7478C27.4128 34.7903 27.6061 35.8624 28.1378 36.7768C28.6694 37.6912 29.5056 38.3896 30.5 38.75V42.3C30.5 42.6978 30.658 43.0793 30.9393 43.3606C31.2206 43.6419 31.6022 43.8 32 43.8C32.3978 43.8 32.7793 43.6419 33.0606 43.3606C33.342 43.0793 33.5 42.6978 33.5 42.3V38.79C34.5236 38.4505 35.3916 37.7555 35.9468 36.831C36.5019 35.9065 36.7074 34.8136 36.526 33.7506C36.3446 32.6876 35.7883 31.7247 34.958 31.0367C34.1276 30.3486 33.0782 29.9808 32 30V30ZM32 36C31.6442 35.9417 31.3207 35.7588 31.0873 35.4841C30.8539 35.2093 30.7258 34.8605 30.7258 34.5C30.7258 34.1395 30.8539 33.7907 31.0873 33.5159C31.3207 33.2411 31.6442 33.0583 32 33C32.4071 33 32.7975 33.1617 33.0854 33.4496C33.3733 33.7374 33.535 34.1279 33.535 34.535C33.535 34.9421 33.3733 35.3325 33.0854 35.6204C32.7975 35.9083 32.4071 36.07 32 36.07V36Z" fill="url(#paint1_linear_122:2253)"/>
<defs>
<linearGradient id="paint0_linear_122:2253" x1="15.4199" y1="31.96" x2="48.5799" y2="31.96" gradientUnits="userSpaceOnUse">
<stop stop-color="#6031A5"/>
<stop offset="0.63" stop-color="#412083"/>
<stop offset="1" stop-color="#331974"/>
</linearGradient>
<linearGradient id="paint1_linear_122:2253" x1="276.959" y1="539.522" x2="358.169" y2="539.522" gradientUnits="userSpaceOnUse">
<stop stop-color="#6031A5"/>
<stop offset="0.63" stop-color="#412083"/>
<stop offset="1" stop-color="#331974"/>
</linearGradient>
</defs>
</svg>
