<?xml version="1.0" encoding="UTF-8" standalone="no"?> <svg xmlns="http://www.w3.org/2000/svg" xmlns:xlink="http://www.w3.org/1999/xlink" viewBox="0 0 64 64"><defs><style>.cls-1{fill:url(#linear-gradient);}.cls-2{fill:url(#linear-gradient-2);}.cls-3{fill:url(#linear-gradient-3);}.cls-4{fill:url(#linear-gradient-4);}.cls-5{fill:url(#linear-gradient-5);}.cls-6{fill:url(#linear-gradient-6);}</style><linearGradient id="linear-gradient" x1="2.5" y1="7.08" x2="46.61" y2="7.08" gradientUnits="userSpaceOnUse"><stop offset="0" stop-color="#17a6d7"/><stop offset="1" stop-color="#9d31fe"/></linearGradient><linearGradient id="linear-gradient-2" x1="2.52" y1="16.42" x2="61.48" y2="16.42" xlink:href="#linear-gradient"/><linearGradient id="linear-gradient-3" y1="28.87" x2="46.61" y2="28.87" xlink:href="#linear-gradient"/><linearGradient id="linear-gradient-4" x1="2.52" y1="38.21" x2="61.48" y2="38.21" xlink:href="#linear-gradient"/><linearGradient id="linear-gradient-5" y1="50.66" x2="46.61" y2="50.66" xlink:href="#linear-gradient"/><linearGradient id="linear-gradient-6" x1="2.52" y1="60" x2="61.48" y2="60" xlink:href="#linear-gradient"/></defs><g id="Layer_47" data-name="Layer 47"><path class="cls-1" d="M4,11.66H45.11a1.5,1.5,0,0,0,1.5-1.5V4a1.5,1.5,0,0,0-1.5-1.5H4A1.5,1.5,0,0,0,2.5,4v6.16A1.5,1.5,0,0,0,4,11.66ZM5.5,5.5H43.61V8.66H5.5Z"/><path class="cls-2" d="M4,17.92H60a1.5,1.5,0,0,0,0-3H4A1.5,1.5,0,0,0,4,17.92Z"/><path class="cls-3" d="M4,33.45H45.11a1.5,1.5,0,0,0,1.5-1.5V25.79a1.5,1.5,0,0,0-1.5-1.5H4a1.5,1.5,0,0,0-1.5,1.5V32A1.5,1.5,0,0,0,4,33.45Zm1.5-6.16H43.61v3.16H5.5Z"/><path class="cls-4" d="M60,36.71H4a1.5,1.5,0,0,0,0,3H60A1.5,1.5,0,0,0,60,36.71Z"/><path class="cls-5" d="M4,55.24H45.11a1.5,1.5,0,0,0,1.5-1.5V47.58a1.5,1.5,0,0,0-1.5-1.5H4a1.5,1.5,0,0,0-1.5,1.5v6.16A1.5,1.5,0,0,0,4,55.24Zm1.5-6.16H43.61v3.16H5.5Z"/><path class="cls-6" d="M60,58.5H4a1.5,1.5,0,0,0,0,3H60A1.5,1.5,0,0,0,60,58.5Z"/></g></svg>