<?xml version="1.0" encoding="UTF-8" standalone="no"?> <svg xmlns="http://www.w3.org/2000/svg" xmlns:xlink="http://www.w3.org/1999/xlink" viewBox="0 0 64 64"><defs><style>.cls-1{fill:url(#linear-gradient);}</style><linearGradient id="linear-gradient" x1="2" y1="32" x2="62" y2="32" gradientUnits="userSpaceOnUse"><stop offset="0" stop-color="#17a6d7"/><stop offset="1" stop-color="#9d31fe"/></linearGradient></defs><g id="Layer_65" data-name="Layer 65"><path class="cls-1" d="M60.79,24.74a6.29,6.29,0,0,0-5.16-2.64h-20a1.61,1.61,0,0,1-1.5-2.19L38,10.05a4.65,4.65,0,0,0-4.3-6.31H29.18a8.31,8.31,0,0,0-7.12,4L13.18,22.1H4a2,2,0,0,0-2,2V58.26a2,2,0,0,0,2,2c6.81,0,35.83,0,43.2,0a6.34,6.34,0,0,0,6-4.36l8.43-25.42A6.32,6.32,0,0,0,60.79,24.74ZM6,26.1h6.3V56.26H6Zm51.88,3.12L49.44,54.64a2.35,2.35,0,0,1-2.24,1.62H16.3V24.67L25.47,9.81a4.38,4.38,0,0,1,3.71-2.07h4.51A.61.61,0,0,1,34.2,8a.59.59,0,0,1,.07.58L30.4,18.45a5.61,5.61,0,0,0,5.22,7.65h20A2.39,2.39,0,0,1,57.88,29.22Z"/></g></svg>