<?xml version="1.0" encoding="utf-8"?>
<!-- Generator: Adobe Illustrator 27.2.0, SVG Export Plug-In . SVG Version: 6.00 Build 0)  -->
<svg version="1.1" id="Layer_1" xmlns="http://www.w3.org/2000/svg" xmlns:xlink="http://www.w3.org/1999/xlink" x="0px" y="0px"
	 viewBox="0 0 612 792" style="enable-background:new 0 0 612 792;" xml:space="preserve">
<style type="text/css">
	.st0{fill:url(#SVGID_1_);}
	.st1{font-family:'Merienda-ExtraBold';}
	.st2{font-size:36px;}
	.st3{font-size:26px;}
	.st4{fill:none;}
</style>
<g>
	
		<linearGradient id="SVGID_1_" gradientUnits="userSpaceOnUse" x1="191.7915" y1="351.8933" x2="486.0385" y2="351.8933" gradientTransform="matrix(1 0 0 -1 0 792)">
		<stop  offset="0" style="stop-color:#17A6D7"/>
		<stop  offset="1" style="stop-color:#000000"/>
	</linearGradient>
	<path class="st0" d="M484.4,340.6c-15.7,38.2-39.8,72.4-63.7,106.1c-13,18.4-26.9,37.5-47,47.7c-16.2,8.2-34.9,9.7-53,10.4
		c-18.2,0.7-36.7,0.7-54,6.2c-17.3,5.5-33.6,17.8-38.7,35.2c-13.2-18.6-24.9-38.3-34.7-58.9c-0.8-1.6-1.6-3.3-1.5-5.1
		c0-2.2,1.3-4.2,2.5-6c6.4-10,12.9-20,20.7-28.8c24.4-27.5,62.7-42.1,99.2-37.8c11.3,1.3,22.3,4.3,33.7,4.3
		c19.6,0,38.1-8.8,57.4-12.7c6.5-1.3,14.8-1.1,17.6,4.9c1.9,4,0,9-3.3,12s-7.6,4.5-11.8,5.9c-35.7,12.1-71.5,24.1-107.2,36.2
		c33.9,3.3,67.2-9.2,99-21.4c10-3.9,20.6-8.1,27.1-16.6s7.1-22.7-1.8-28.7c-2-1.4-4.4-2.4-5.5-4.5c-1.7-3.5,1.1-7.4,3.8-10.2
		c9.8-10.4,19.6-20.8,29.4-31.2c6.9-7.3,15.6-15.2,25.4-13.3c2.9,0.6,5.7,2.1,7.1,4.7c3.9,7.3-5.4,14.3-8.8,21.9"/>
	<g>
		<path d="M482,340c-9.3,22.7-21.7,44-35.1,64.5c-6.7,10.2-13.7,20.3-20.7,30.3c-6.5,9.2-12.9,18.6-19.9,27.5
			c-6.7,8.5-14,16.6-22.6,23.1c-9.3,6.9-19.7,11.3-31,13.7c-24.2,5.2-49.2,2.1-73.5,6.4c-20.2,3.6-41.4,13.8-50.8,33.2
			c-1.1,2.3-2,4.6-2.7,7c1.5-0.2,3-0.4,4.6-0.6c-9.4-13.3-18.1-27.1-25.8-41.5c-1.9-3.5-3.7-7-5.5-10.6c-0.9-1.8-1.8-3.6-2.6-5.4
			c-0.7-1.5-1.7-3.1-1.9-4.8c-0.2-1.8,0.9-3.4,1.8-4.8c1-1.7,2.1-3.3,3.2-5c2.3-3.5,4.5-6.9,6.9-10.3c8.3-11.8,18-22.4,29.8-30.6
			c11.1-7.7,23.5-13.4,36.6-16.9s26.7-4.6,40.1-3.2c8.4,0.9,16.6,2.7,24.9,3.7c8,1,16,0.8,23.9-0.6c7.9-1.3,15.5-3.6,23.1-5.9
			c7.4-2.2,14.9-4.7,22.6-5.9c4.2-0.6,11.3-0.8,13.3,4c1.1,2.7-0.1,5.8-1.9,7.9c-2.2,2.6-5.5,4.1-8.6,5.3c-7.8,2.9-15.8,5.4-23.7,8
			c-8.3,2.8-16.7,5.6-25,8.4c-16.5,5.6-33,11.1-49.4,16.7c-4.1,1.4-8.1,2.7-12.2,4.1c-2.8,0.9-2.1,4.6,0.7,4.9
			c21.4,2.1,42.8-2.1,63.2-8.4c10.3-3.2,20.4-6.9,30.5-10.8c8.7-3.3,17.8-6.4,25.5-11.6c6.9-4.7,12.5-11.3,13.9-19.8
			c1.2-7.5-0.6-15.6-6.9-20.3c-1.5-1.1-3.6-1.9-4.8-3.4c-1.2-1.5-0.3-3.5,0.6-4.9c1.3-2.1,3.2-3.8,4.9-5.6c1.9-2,3.8-4.1,5.8-6.1
			c7.6-8,15-16.2,22.7-24c5.6-5.7,13.7-13.2,22.4-10.7c3.4,1,5.8,3.8,4.8,7.5s-3.8,6.8-6,9.9c-1.2,1.7-2.3,3.4-3.1,5.2
			c-0.6,1.2-0.3,2.7,0.9,3.4c1.1,0.6,2.8,0.3,3.4-0.9c3.2-6.9,11.9-13.6,9.7-22c-1.2-4.5-5.3-7.4-9.7-8.2c-4.7-0.8-9.3,0.2-13.5,2.4
			c-4.2,2.2-7.9,5.4-11.3,8.7c-3.8,3.8-7.4,7.8-11.1,11.7c-4,4.2-8,8.4-11.9,12.6c-3.8,4-8.1,7.9-11.4,12.4c-3,3.9-4.1,9.3,0.1,12.9
			c1.6,1.4,3.5,2.2,5.1,3.5c1.3,1.1,2.3,2.3,3.1,3.8c3.3,6.3,1.7,14.6-2.3,20.2c-5.1,7.3-13.9,11.3-21.9,14.5
			c-10,4-20.2,7.9-30.4,11.4c-20.6,7.1-42.1,12.7-64,12.2c-2.8-0.1-5.5-0.2-8.2-0.5c0.2,1.6,0.4,3.3,0.7,4.9
			c34.4-11.6,68.9-23.2,103.3-34.8c7.1-2.4,15.6-4.5,19.6-11.4c3.4-5.9,2-13.6-4.5-16.6c-6.1-2.8-13.2-1.4-19.5,0.1
			c-8.1,1.9-15.9,4.5-23.9,6.7c-7.7,2.2-15.6,4.2-23.7,4.7c-8.8,0.6-17.4-0.8-26-2.2c-7.8-1.3-15.5-2.5-23.4-2.6
			c-7.2-0.1-14.5,0.5-21.6,1.7c-28.3,4.8-54.6,20-72.6,42.5c-5.3,6.6-10,13.7-14.6,20.8c-2.1,3.3-5.1,6.8-5.1,10.9
			c0,3.9,2.6,7.9,4.3,11.3c7.5,15.1,15.9,29.7,25.3,43.7c2.3,3.5,4.7,6.9,7.1,10.3c1.2,1.7,3.9,1.6,4.6-0.6
			c6-20.1,26.2-31.5,45.4-35.8c24.1-5.4,49.2-2.2,73.5-6.5c11.5-2,22.7-5.7,32.5-12.1c9.1-6,17-13.7,24-22
			c7.2-8.5,13.5-17.7,19.9-26.8c7.1-10.1,14.2-20.1,21-30.4c13.6-20.3,26.3-41.3,36.3-63.7c1.2-2.8,2.4-5.6,3.6-8.5
			c0.5-1.2-0.6-2.7-1.7-3.1C483.7,337.8,482.5,338.7,482,340L482,340z"/>
	</g>
</g>
<g>
	<g>
		<path d="M201.3,330.2c0,1,0.3,1.9,0.9,2.7c0.6,0.8,1.3,1.6,2.2,2.3c0.9,0.7,1.9,1.4,2.9,2.1s2,1.5,2.9,2.3s1.7,1.7,2.2,2.7
			c0.6,1,0.9,2.2,0.9,3.5c0,1.6-0.5,3-1.4,4.2s-2.2,2.1-3.8,2.8c-1.6,0.7-3.5,1-5.7,1c-1.9,0-3.7-0.3-5.1-0.8
			c-1.5-0.5-2.6-1.3-3.5-2.2c-0.8-0.9-1.3-2-1.3-3.3c0-1,0.2-1.8,0.7-2.6c0.5-0.8,1.1-1.4,2-1.9c0.8-0.5,1.8-0.7,2.8-0.7
			c0.2,0,0.5,0,0.7,0s0.5,0.1,0.7,0.1c-0.8,1-1.3,2.2-1.3,3.6s0.4,2.5,1.2,3.4s1.8,1.3,3.2,1.3c1.2,0,2.1-0.3,2.9-1
			c0.8-0.7,1.2-1.5,1.2-2.5c0-0.9-0.3-1.7-0.8-2.4c-0.6-0.7-1.3-1.5-2.2-2.1c-0.9-0.7-1.8-1.4-2.8-2.1s-1.9-1.5-2.8-2.4
			c-0.9-0.9-1.6-1.8-2.2-2.8c-0.6-1-0.8-2.2-0.8-3.6c0-1.6,0.4-3,1.3-4.2c0.8-1.2,2-2.1,3.5-2.8c1.5-0.7,3.3-1,5.3-1
			c1.7,0,3.2,0.2,4.5,0.7s2.3,1.2,3,2.1s1.1,1.9,1.1,3c0,0.9-0.2,1.7-0.7,2.4c-0.5,0.7-1.1,1.3-1.9,1.7c-0.8,0.4-1.7,0.6-2.7,0.6
			c-0.3,0-0.6,0-0.9,0c-0.3,0-0.5-0.1-0.7-0.1c0.4-0.5,0.8-1,1.1-1.7s0.4-1.4,0.4-2.1c0-1.1-0.3-2-1-2.7c-0.6-0.7-1.5-1-2.5-1
			c-1.1,0-1.9,0.3-2.6,1C201.6,328.3,201.3,329.1,201.3,330.2z"/>
		<path d="M225.3,353.3c-1,0-2-0.2-3-0.6s-1.9-0.9-2.7-1.7c-0.8-0.8-1.4-1.7-1.9-2.9c-0.5-1.2-0.7-2.6-0.7-4.2c0-2,0.4-3.9,1.1-5.6
			c0.7-1.7,1.7-3.2,3-4.4c1.3-1.2,2.8-2,4.5-2.4c0.3,0,0.5,0.1,0.7,0.2s0.3,0.3,0.4,0.5c-0.8,0.5-1.5,1.3-2.3,2.4
			c-0.7,1-1.2,2.4-1.5,4h0.2c0.6-1.7,1.4-3,2.2-4c0.9-0.9,1.8-1.6,2.7-2s1.8-0.6,2.5-0.6c1.2,0,2.2,0.3,3.1,0.9
			c0.9,0.6,1.6,1.5,2.1,2.7s0.8,2.6,0.8,4.2c0,1.5-0.2,3.1-0.6,4.7c-0.4,1.6-1.1,3-2,4.3s-2.1,2.4-3.5,3.2
			C229,352.9,227.3,353.3,225.3,353.3z M226.2,350.8c0.7,0,1.4-0.3,1.9-0.9c0.6-0.6,1.1-1.4,1.5-2.4s0.7-2.1,0.9-3.3
			c0.2-1.2,0.3-2.4,0.3-3.6c0-2.1-0.2-3.6-0.7-4.5c-0.4-0.9-1-1.3-1.7-1.3s-1.3,0.3-1.9,0.9c-0.6,0.6-1.2,1.4-1.6,2.3
			c-0.5,1-0.8,2-1.1,3.2s-0.4,2.3-0.4,3.4s0.1,2.2,0.3,3.1s0.5,1.7,0.9,2.2C224.9,350.5,225.5,350.8,226.2,350.8z"/>
		<path d="M253.4,346.5c-0.7,0-1.2-0.1-1.7-0.2s-0.7-0.3-0.8-0.4c-0.7-1.9-1.5-3.9-2.3-6s-1.6-4.2-2.5-6.1c-0.9-2-1.7-3.7-2.6-5.3
			c-0.9-1.6-1.8-2.8-2.7-3.6c0.4-0.2,0.8-0.4,1.4-0.5c0.5-0.1,1-0.3,1.6-0.3c0.5-0.1,1-0.1,1.4-0.1c0.6,0,1.1,0.1,1.6,0.3
			c0.5,0.2,1,0.6,1.4,1.3c0.5,0.7,1,1.6,1.6,2.9s1.3,3,2.1,5.2s1.9,4.9,3.1,8.1c0.7-1,1.4-2.1,2.1-3.3c0.7-1.2,1.4-2.4,2.1-3.6
			c0.7-1.3,1.3-2.5,1.9-3.8s1.1-2.5,1.6-3.7c0.4-1.2,0.8-2.3,1-3.4c1,0.6,1.6,1.2,2,1.7c0.4,0.6,0.5,1.1,0.5,1.7s-0.2,1.2-0.6,1.9
			c-0.3,0.7-0.7,1.4-1.2,2.3c-1,1.6-1.9,3.2-2.8,4.8c-0.9,1.6-1.8,3.2-2.7,4.8c-0.9,1.6-1.9,3.2-2.9,4.9c-0.5,0.2-1,0.3-1.4,0.4
			C254.2,346.5,253.8,346.5,253.4,346.5z M245.8,353c-1.1,0-2-0.1-2.6-0.2s-1.1-0.3-1.4-0.5c-0.3-0.2-0.5-0.5-0.6-0.7
			c-0.1-0.3-0.1-0.6-0.1-0.9s0-0.9,0.1-1.9c0.1-0.9,0.2-2.1,0.4-3.5c0.1-1.4,0.3-2.9,0.5-4.4c0.2-1.6,0.3-3.2,0.5-4.8
			s0.3-3.2,0.3-4.6c0.1-1.5,0.1-2.7,0.1-3.7c0-0.7,0-1.2-0.1-1.7s-0.2-0.8-0.3-1.1c1.4,0.3,2.4,0.6,3.1,1c0.6,0.4,1.1,0.9,1.2,1.4
			c0.2,0.5,0.3,1.1,0.3,1.8c0,1.9-0.1,4-0.3,6.2s-0.5,4.5-0.7,6.9s-0.4,5-0.4,7.7c0,0.5,0,0.9,0,1.4
			C245.7,351.9,245.7,352.4,245.8,353z M268.2,353.9c-1.8-0.4-3.2-0.8-4.2-1.3c-0.9-0.5-1.5-1.2-1.9-1.9c-0.3-0.7-0.5-1.6-0.5-2.5
			c0-0.4,0-1.1,0.1-2.1s0.2-2.2,0.4-3.6c0.2-1.4,0.3-2.9,0.5-4.5s0.3-3.3,0.5-4.9c0.2-1.7,0.3-3.3,0.4-4.9s0.1-3,0.1-4.3
			c1.5,0,2.6,0.2,3.5,0.4c0.8,0.2,1.5,0.5,1.9,0.9s0.7,0.8,0.8,1.3c0.1,0.5,0.2,1,0.2,1.7c0,0.8-0.1,1.8-0.2,3.2
			c-0.2,1.3-0.3,2.8-0.6,4.5c-0.2,1.7-0.5,3.3-0.7,5.1s-0.4,3.4-0.6,4.9c-0.2,1.6-0.2,2.9-0.2,4.1
			C267.7,351.8,267.9,353.1,268.2,353.9z"/>
		<path d="M282.6,353.3c-1.6,0-3-0.4-4.2-1.1s-2.1-1.7-2.8-3.1c-0.7-1.3-1-2.9-1-4.6c0-1.8,0.3-3.4,0.9-4.9s1.4-2.8,2.4-4
			c1-1.1,2.3-2,3.7-2.6c1.4-0.6,2.9-1,4.6-1c1.9,0,3.5,0.5,4.6,1.4s1.7,2.2,1.7,3.8c0,1.3-0.3,2.5-1,3.5s-1.6,1.8-2.8,2.4
			c-1.2,0.6-2.6,0.8-4.3,0.8c-0.6,0-1.1,0-1.7-0.1c-0.5-0.1-1.1-0.2-1.6-0.4l0.1-1.4h0.9c0.9,0,1.6-0.2,2.3-0.7
			c0.6-0.5,1.1-1.1,1.5-1.9s0.5-1.8,0.5-2.9c0-0.7-0.1-1.2-0.4-1.6s-0.6-0.6-1.1-0.6c-0.6,0-1.1,0.3-1.5,1s-0.8,1.6-1.1,2.6
			c-0.3,1.1-0.5,2.2-0.7,3.3c-0.1,1.2-0.2,2.2-0.2,3.2c0,2.2,0.3,3.8,0.9,4.8s1.4,1.4,2.6,1.4c1.9,0,3.6-1.2,5-3.5
			c0.9,0.2,1.3,0.7,1.3,1.3c-1,1.6-2.2,2.8-3.6,3.6C285.9,352.9,284.3,353.3,282.6,353.3z"/>
	</g>
	<text transform="matrix(1 0 0 1 191.8313 352.8095)" class="st1 st2"> </text>
</g>
<text transform="matrix(1 0 0 1 191.8313 383.4495)" class="st1 st3">Shape Your Story</text>
<rect x="264.3" y="297.6" class="st4" width="51.7" height="3.6"/>
</svg>
